<mxfile host="app.diagrams.net" modified="2023-05-15T08:09:38.322Z" agent="Mozilla/5.0 (Macintosh; Intel Mac OS X 10_15_7) AppleWebKit/537.36 (KHTML, like Gecko) Chrome/113.0.0.0 Safari/537.36" version="21.2.9" etag="O5_HaLN0CscByIrwDJ_R" type="github">
  <diagram name="第 1 页" id="9b5WnOTIqI6HxT8bgpYz">
    <mxGraphModel>
      <root>
        <mxCell id="0" />
        <mxCell id="1" parent="0" />
      </root>
    </mxGraphModel>
  </diagram>
</mxfile>
